<mxfile host="65bd71144e">
    <diagram id="xslahP2pf-6_SkfXjvGJ" name="Page-1">
        <mxGraphModel dx="827" dy="724" grid="0" gridSize="10" guides="1" tooltips="1" connect="1" arrows="1" fold="1" page="0" pageScale="1" pageWidth="850" pageHeight="1100" math="0" shadow="0">
            <root>
                <mxCell id="0"/>
                <mxCell id="1" parent="0"/>
                <mxCell id="9" style="edgeStyle=none;html=1;entryX=0.5;entryY=0;entryDx=0;entryDy=0;" parent="1" source="2" target="3" edge="1">
                    <mxGeometry relative="1" as="geometry"/>
                </mxCell>
                <mxCell id="10" style="edgeStyle=none;html=1;" parent="1" source="2" target="4" edge="1">
                    <mxGeometry relative="1" as="geometry"/>
                </mxCell>
                <mxCell id="2" value="STREAMER" style="rounded=1;whiteSpace=wrap;html=1;fillColor=#e1d5e7;strokeColor=#9673a6;" parent="1" vertex="1">
                    <mxGeometry x="313" y="109" width="120" height="60" as="geometry"/>
                </mxCell>
                <mxCell id="7" value="&lt;span style=&quot;color: rgb(0 , 0 , 0) ; font-family: &amp;#34;helvetica&amp;#34; ; font-size: 11px ; font-style: normal ; font-weight: 400 ; letter-spacing: normal ; text-align: center ; text-indent: 0px ; text-transform: none ; word-spacing: 0px ; background-color: rgb(255 , 255 , 255) ; display: inline ; float: none&quot;&gt;OPERATION&lt;/span&gt;" style="edgeStyle=none;html=1;entryX=1;entryY=0.5;entryDx=0;entryDy=0;" parent="1" source="3" target="4" edge="1">
                    <mxGeometry relative="1" as="geometry">
                        <mxPoint x="475.25" y="469" as="targetPoint"/>
                    </mxGeometry>
                </mxCell>
                <mxCell id="3" value="ORACLE" style="rounded=1;whiteSpace=wrap;html=1;fillColor=#dae8fc;strokeColor=#6c8ebf;" parent="1" vertex="1">
                    <mxGeometry x="445" y="269" width="120" height="60" as="geometry"/>
                </mxCell>
                <mxCell id="4" value="VISUALIZER" style="rounded=1;whiteSpace=wrap;html=1;fillColor=#d5e8d4;strokeColor=#82b366;" parent="1" vertex="1">
                    <mxGeometry x="136" y="269" width="120" height="60" as="geometry"/>
                </mxCell>
                <mxCell id="18" style="edgeStyle=none;html=1;exitX=1;exitY=0.75;exitDx=0;exitDy=0;entryX=0;entryY=0;entryDx=0;entryDy=20;entryPerimeter=0;" parent="1" source="5" target="16" edge="1">
                    <mxGeometry relative="1" as="geometry"/>
                </mxCell>
                <mxCell id="5" value="TRADER" style="rounded=1;whiteSpace=wrap;html=1;fillColor=#ffe6cc;strokeColor=#d79b00;" parent="1" vertex="1">
                    <mxGeometry x="143" y="551" width="120" height="60" as="geometry"/>
                </mxCell>
                <mxCell id="8" value="&lt;span style=&quot;color: rgb(0, 0, 0); font-family: helvetica; font-size: 11px; font-style: normal; font-weight: 400; letter-spacing: normal; text-align: center; text-indent: 0px; text-transform: none; word-spacing: 0px; background-color: rgb(255, 255, 255); display: inline; float: none;&quot;&gt;TRADE_OPERATION&lt;/span&gt;" style="edgeStyle=none;html=1;entryX=1;entryY=0.5;entryDx=0;entryDy=0;" parent="1" target="5" edge="1">
                    <mxGeometry relative="1" as="geometry">
                        <mxPoint x="410" y="522.768115942029" as="sourcePoint"/>
                    </mxGeometry>
                </mxCell>
                <mxCell id="17" style="edgeStyle=none;html=1;" parent="1" target="16" edge="1">
                    <mxGeometry relative="1" as="geometry">
                        <mxPoint x="476.92893401015226" y="529" as="sourcePoint"/>
                    </mxGeometry>
                </mxCell>
                <mxCell id="15" style="edgeStyle=none;html=1;entryX=0.5;entryY=0;entryDx=0;entryDy=0;" parent="1" source="14" target="2" edge="1">
                    <mxGeometry relative="1" as="geometry"/>
                </mxCell>
                <mxCell id="14" value="API&amp;nbsp;" style="shape=cube;whiteSpace=wrap;html=1;boundedLbl=1;backgroundOutline=1;darkOpacity=0.05;darkOpacity2=0.1;fillColor=#fff2cc;strokeColor=#d6b656;" parent="1" vertex="1">
                    <mxGeometry x="306.5" y="-14" width="133" height="60" as="geometry"/>
                </mxCell>
                <mxCell id="16" value="KUCOIN" style="shape=cube;whiteSpace=wrap;html=1;boundedLbl=1;backgroundOutline=1;darkOpacity=0.05;darkOpacity2=0.1;fillColor=#cce5ff;strokeColor=#36393d;" parent="1" vertex="1">
                    <mxGeometry x="449" y="666" width="133" height="60" as="geometry"/>
                </mxCell>
                <mxCell id="21" style="edgeStyle=none;html=1;exitX=0.5;exitY=1;exitDx=0;exitDy=0;entryX=0;entryY=0;entryDx=133;entryDy=40;entryPerimeter=0;" parent="1" source="20" target="16" edge="1">
                    <mxGeometry relative="1" as="geometry"/>
                </mxCell>
                <mxCell id="20" value="" style="shape=actor;whiteSpace=wrap;html=1;" parent="1" vertex="1">
                    <mxGeometry x="792" y="491" width="40" height="60" as="geometry"/>
                </mxCell>
                <mxCell id="23" value="publisher" style="text;html=1;align=center;verticalAlign=middle;resizable=0;points=[];autosize=1;strokeColor=none;fillColor=none;" vertex="1" parent="1">
                    <mxGeometry x="438" y="127" width="59" height="18" as="geometry"/>
                </mxCell>
                <mxCell id="24" value="publisher" style="text;html=1;align=center;verticalAlign=middle;resizable=0;points=[];autosize=1;strokeColor=none;fillColor=none;" vertex="1" parent="1">
                    <mxGeometry x="580" y="273" width="59" height="18" as="geometry"/>
                </mxCell>
                <mxCell id="25" value="subscriber" style="text;html=1;align=center;verticalAlign=middle;resizable=0;points=[];autosize=1;strokeColor=none;fillColor=none;" vertex="1" parent="1">
                    <mxGeometry x="577" y="294" width="65" height="18" as="geometry"/>
                </mxCell>
                <mxCell id="26" value="subscriber" style="text;html=1;align=center;verticalAlign=middle;resizable=0;points=[];autosize=1;strokeColor=none;fillColor=none;" vertex="1" parent="1">
                    <mxGeometry x="130" y="245" width="65" height="18" as="geometry"/>
                </mxCell>
            </root>
        </mxGraphModel>
    </diagram>
</mxfile>